<svg id="Layer_1" data-name="Layer 1" xmlns="http://www.w3.org/2000/svg" viewBox="0 0 726.76 147.35"><defs><style>.cls-1{fill:#fff;}.cls-2{fill:#f58025;}</style></defs><title>AU GINN wide h_AU top_ALLWHITE</title><polyline class="cls-1" points="725.6 66.35 725.6 64.84 182.01 64.84 182.01 66.35"/><path class="cls-1" d="M244.37,86.45c-.64,1.89-2.31,5.82-2.31,7.63,0,2.31,2.61,2.31,4.31,2.57v.57H236v-.57c3.36-.9,3.7-1.66,4.87-4.61l4.27-11.15,2.27-6.16c.34-1,.83-1.89.42-2.61a7,7,0,0,0,2.76-2l8.31,22.15c1,2.76,1.66,3.86,4.69,4.42v.57H252.5v-.57c1.32-.3,2.91-.72,2.91-2.42S254,89.09,253,86.45Zm4.19-11.57L245,84.71h7.49Z" transform="translate(-53.93 -51.11)"/><path class="cls-1" d="M301.17,71.52v.57c-3.44.37-3.66,2.49-3.81,7.48l-.23,8.28c-.11,4.87-2.19,9.82-10.58,9.82-11.72,0-10.51-8.46-10.51-11.49V77.72c-.11-3.89-.15-5-4.69-5.63v-.57h13v.57c-4.95.71-5,1.47-5,5.63v7.74c0,.72-1.21,10.47,9.14,10.47,8.17,0,7.37-7.78,7.37-12.39v-4c0-4.8-.38-7-5.67-7.48v-.57Z" transform="translate(-53.93 -51.11)"/><path class="cls-1" d="M323.62,83.65c3.44.79,8.39,2.38,8.39,6.84,0,7-9,6.84-10.92,6.8l-10.39-.07v-.57c4.53-.6,4.57-1.74,4.68-5.63V77.91c-.11-3.9-.15-5-4.46-5.6v-.56l7.67-.31c4.24-.15,11.72.27,11.72,6.24,0,3.7-3.7,5.14-6.69,5.9Zm-4.91,7c0,2.95-.19,5.74,3.66,5.74a5.25,5.25,0,0,0,5.6-5.48,7.1,7.1,0,0,0-7.79-6.61l-1.47.08Zm0-7.07c3.51,0,7.86-1,7.86-5.36,0-4.54-4-5.94-7.86-5.94Z" transform="translate(-53.93 -51.11)"/><path class="cls-1" d="M373,71.52v.57c-3.44.37-3.67,2.49-3.82,7.48l-.22,8.28c-.12,4.87-2.2,9.82-10.59,9.82-11.71,0-10.5-8.46-10.5-11.49V77.72c-.12-3.89-.15-5-4.69-5.63v-.57h13v.57c-4.95.71-5,1.47-5,5.63v7.74c0,.72-1.21,10.47,9.15,10.47,8.16,0,7.37-7.78,7.37-12.39v-4c0-4.8-.38-7-5.67-7.48v-.57Z" transform="translate(-53.93 -51.11)"/><path class="cls-1" d="M387.15,79.3c0-5.78-.19-6.65-4.42-7v-.53l9.22-.31c9.52-.3,10.28,4.35,10.28,6.16,0,3.18-2,5-4.69,6.2l.19.27c2.91,5.1,6.54,11.6,12.78,12.88l-.12.57c-4-.19-6.95-.07-9.14-2.34A33.51,33.51,0,0,1,396,87.62c-1.51-3.14-2.87-2.23-5.51-2.68V91c0,4.16.07,4.91,5.25,5.63v.57H382.46v-.57c4.54-.6,4.58-1.74,4.69-5.63Zm3.33,5c3.62,0,7.86-1.7,7.86-5.89,0-4.42-3.9-6.2-7.86-6.16Z" transform="translate(-53.93 -51.11)"/><path class="cls-1" d="M440.86,91.29l-.19-13.8c0-3.59-1-4.65-5.29-5.4v-.57h10.31v.57c-2.6.34-3.1,1.77-3.4,4.23-.53,4.16-.34,13.26-.15,21.5l-.49.12c-6-7.15-12.77-13.76-19.16-20.64v7c0,9.37-.23,11.3,5.25,12.39v.57h-11.3v-.57c5.1-.53,4.91-4,4.91-12.58V78.4c0-3.78-.6-5.26-5.4-6.31v-.57h6.24Z" transform="translate(-53.93 -51.11)"/><path class="cls-1" d="M503,71.52v.57c-3.44.37-3.67,2.49-3.82,7.48l-.23,8.28c-.11,4.87-2.19,9.82-10.58,9.82-11.72,0-10.51-8.46-10.51-11.49V77.72c-.11-3.89-.15-5-4.68-5.63v-.57h13v.57c-4.95.71-5,1.47-5,5.63v7.74c0,.72-1.21,10.47,9.15,10.47,8.16,0,7.37-7.78,7.37-12.39v-4c0-4.8-.38-7-5.67-7.48v-.57Z" transform="translate(-53.93 -51.11)"/><path class="cls-1" d="M536.85,91.29l-.19-13.8c0-3.59-1-4.65-5.29-5.4v-.57h10.32v.57c-2.61.34-3.1,1.77-3.4,4.23-.53,4.16-.34,13.26-.16,21.5l-.49.12c-6-7.15-12.77-13.76-19.16-20.64v7c0,9.37-.23,11.3,5.26,12.39v.57H512.43v-.57c5.11-.53,4.92-4,4.92-12.58V78.4c0-3.78-.61-5.26-5.41-6.31v-.57h6.24Z" transform="translate(-53.93 -51.11)"/><path class="cls-1" d="M559.11,91c.11,3.89.15,5,4.69,5.63v.57H551.1v-.57c4.53-.6,4.57-1.74,4.68-5.63V77.72c-.11-3.89-.15-5-4.68-5.63v-.57h12.7v.57c-4.54.6-4.58,1.74-4.69,5.63Z" transform="translate(-53.93 -51.11)"/><path class="cls-1" d="M600.19,71.52v.57c-3.55.3-4.65,3.28-7,8.76L586,98.09h-.53l-8.54-20.45c-1.13-2.76-2-5.18-5.37-5.55v-.57h12v.57c-5.33.53-3.59,3.55-2.6,5.93l6,14.59,4.46-10.7c3.25-7.75,3.86-9-1.89-9.82v-.57Z" transform="translate(-53.93 -51.11)"/><path class="cls-1" d="M606.24,96.65c4.53-.6,4.57-1.74,4.68-5.63V77.72c-.11-3.89-.15-5-4.68-5.63v-.57h20.29l-.45,5.82h-.57c-.26-4.88-3.78-4.91-7.6-4.91h-3.66V83.2h3.93c2.83,0,5-.23,5.4-3.48h.57v8.43h-.57c-.49-3.33-2.57-3.36-5.4-3.36h-3.93V91c0,2.23-.53,5.33,5.67,5.33,4.76,0,7.1-1.81,8.05-6.57h.56a23.49,23.49,0,0,1-1.28,7.48h-21Z" transform="translate(-53.93 -51.11)"/><path class="cls-1" d="M644.14,79.3c0-5.78-.19-6.65-4.42-7v-.53l9.22-.31c9.53-.3,10.28,4.35,10.28,6.16,0,3.18-2,5-4.68,6.2l.19.27c2.91,5.1,6.53,11.6,12.77,12.88l-.11.57c-4-.19-7-.07-9.15-2.34A33.4,33.4,0,0,1,653,87.62c-1.51-3.14-2.88-2.23-5.52-2.68V91c0,4.16.07,4.91,5.25,5.63v.57H639.46v-.57c4.53-.6,4.57-1.74,4.68-5.63Zm3.33,5c3.63,0,7.86-1.7,7.86-5.89,0-4.42-3.89-6.2-7.86-6.16Z" transform="translate(-53.93 -51.11)"/><path class="cls-1" d="M689.38,78.17h-.6c-.61-3.06-1.59-6-5.33-6A4.19,4.19,0,0,0,679,76.32c0,6.54,11.9,6.31,11.9,13.94,0,4.88-4.84,7.41-9.18,7.41a12.53,12.53,0,0,1-6.65-1.92L674,89.32h.68c.94,3.63,3.48,7.22,7.63,7.22,2.8,0,5-1.66,5-4.61,0-6.73-11.56-6.13-11.56-13.68,0-4.42,4.38-7.22,8.43-7.22a11.63,11.63,0,0,1,5.51,1.47Z" transform="translate(-53.93 -51.11)"/><path class="cls-1" d="M710.28,91c.11,3.89.15,5,4.69,5.63v.57h-12.7v-.57c4.53-.6,4.57-1.74,4.69-5.63V77.72c-.12-3.89-.16-5-4.69-5.63v-.57H715v.57c-4.54.6-4.58,1.74-4.69,5.63Z" transform="translate(-53.93 -51.11)"/><path class="cls-1" d="M748,70.35h.3l.53,7.06-.53.12c-1.32-4.69-3.4-4.88-7.74-4.88h-2.27V90.11c0,4.69.22,5.94,5.29,6.54v.57H729.63v-.57c5.07-.6,5.29-1.85,5.29-6.54V72.65h-2.27c-4.34,0-6.42.19-7.74,4.88l-.53-.12.53-7.06h.3l.38.34c.94.87,1.09.83,2.34.83h17.31c1.25,0,1.4,0,2.34-.83Z" transform="translate(-53.93 -51.11)"/><path class="cls-1" d="M780.69,71.52v.57c-3.29.26-4.91,2.07-6.5,4.8l-4.46,8.84V90c.07,4.35.15,5.9,5,6.65v.57h-13.3v-.57c4.83-.75,4.91-2.3,5-6.65V87l-3.93-8.58c-1.43-3.18-2.45-5.86-6.27-6.31v-.57h10.43v.57c-3.1.41-2.68,1.66-1.47,4.3l3.78,8.17,3.28-6.24c2.35-4.38,2-5.82-1.24-6.23v-.57Z" transform="translate(-53.93 -51.11)"/><path class="cls-1" d="M396.51,140.25h-.39c-.4-2-1-3.91-3.47-3.91a2.72,2.72,0,0,0-2.88,2.7c0,4.26,7.75,4.11,7.75,9.08,0,3.18-3.15,4.83-6,4.83a8.16,8.16,0,0,1-4.33-1.26l-.71-4.18h.44c.61,2.36,2.26,4.7,5,4.7a3,3,0,0,0,3.25-3c0-4.38-7.53-4-7.53-8.91,0-2.88,2.85-4.7,5.48-4.7a7.65,7.65,0,0,1,3.6,1Z" transform="translate(-53.93 -51.11)"/><path class="cls-1" d="M408.94,145.64c-.42,1.23-1.5,3.79-1.5,5,0,1.5,1.7,1.5,2.8,1.67v.37H403.5v-.37c2.19-.59,2.41-1.08,3.17-3l2.79-7.26,1.47-4c.22-.64.54-1.23.27-1.7A4.57,4.57,0,0,0,413,135l5.41,14.42c.67,1.8,1.09,2.51,3,2.88v.37h-7.23v-.37c.86-.2,1.89-.47,1.89-1.57s-.93-3.35-1.57-5.07Zm2.73-7.53-2.31,6.4h4.87Z" transform="translate(-53.93 -51.11)"/><path class="cls-1" d="M438.2,149.06l4.45-9.8c.62-1.35,1-2.58.42-2.95l.05-.39h5.41v.37c-1.57.32-2.53.91-2.43,2.63l.54,9c.27,3.42.27,4,2.9,4.4v.37h-8.09v-.37c1.89-.29,3.1-.52,3-2.68l-.66-10.76h-.05l-6.27,13.81h-.27l-5.84-13.24h-.05c-.39,3.77-.59,6.5-.76,10.31,0,1,0,2.07,3,2.56v.37h-6.86v-.37c2.19-.37,2.41-1.43,2.75-3.42l.91-6.91.32-3.35c.15-1.63-1.25-2.19-2.7-2.31v-.37h5.31l0,.27c-.54.56.12,2,.29,2.43Z" transform="translate(-53.93 -51.11)"/><path class="cls-1" d="M475.46,135.92v.37c-2.24.24-2.39,1.62-2.49,4.87l-.15,5.39c-.07,3.17-1.42,6.4-6.89,6.4-7.63,0-6.84-5.52-6.84-7.49V140c-.07-2.53-.1-3.27-3-3.66v-.37h8.49v.37c-3.22.46-3.27,1-3.27,3.66V145c0,.46-.79,6.81,5.95,6.81,5.32,0,4.8-5.07,4.8-8.07v-2.58c0-3.13-.24-4.55-3.69-4.87v-.37Z" transform="translate(-53.93 -51.11)"/><path class="cls-1" d="M482.15,152.28c3-.39,3-1.13,3.05-3.66V140c-.07-2.53-.1-3.27-3.05-3.66v-.37h13.22l-.3,3.79h-.37c-.17-3.18-2.46-3.2-4.95-3.2h-2.38v7h2.56c1.84,0,3.24-.15,3.52-2.26h.36v5.48h-.36c-.33-2.16-1.68-2.19-3.52-2.19h-2.56v4c0,1.45-.35,3.47,3.69,3.47,3.1,0,4.63-1.18,5.24-4.28h.37a15.73,15.73,0,0,1-.84,4.87H482.15Z" transform="translate(-53.93 -51.11)"/><path class="cls-1" d="M503.81,152.28c2.95-.39,3-1.13,3.05-3.66V140c-.08-2.53-.1-3.27-3.05-3.66v-.37h8.26v.37c-3,.39-3.05,1.13-3.05,3.66V148a12.55,12.55,0,0,0,.37,3.72l3,.22c3.74.27,4.36-.88,6.26-4l.31.14-1.4,4.58H503.81Z" transform="translate(-53.93 -51.11)"/><path class="cls-1" d="M554.65,150.76v.36a17.73,17.73,0,0,1-7.43,1.83c-5.07,0-9.38-3.08-9.38-8.47s4.78-8.86,9.92-8.86a18.55,18.55,0,0,1,5.76,1l-.1,4.28h-.32a5.43,5.43,0,0,0-5.56-4.65c-4.26,0-6.85,3.25-6.85,7.36a8.19,8.19,0,0,0,8.37,8.54c2.24,0,2.22-.59,2.22-2.19v-1.48c0-2.73-.72-3-3.32-3.34v-.37h7.28v.37c-1.72.34-1.8,1-1.8,2.56v3.1Z" transform="translate(-53.93 -51.11)"/><path class="cls-1" d="M567.12,148.62c.08,2.53.1,3.27,3.06,3.66v.37h-8.27v-.37c3-.39,3-1.13,3.05-3.66V140c-.08-2.53-.1-3.27-3.05-3.66v-.37h8.27v.37c-3,.39-3,1.13-3.06,3.66Z" transform="translate(-53.93 -51.11)"/><path class="cls-1" d="M593,148.79l-.12-9c0-2.33-.67-3-3.45-3.51v-.37h6.72v.37c-1.7.22-2,1.15-2.22,2.75a131.55,131.55,0,0,0-.09,14l-.32.08c-3.94-4.65-8.32-9-12.48-13.44v4.53c0,6.1-.15,7.36,3.42,8.07v.37h-7.36v-.37c3.32-.34,3.2-2.61,3.2-8.19V140.4c0-2.47-.39-3.43-3.52-4.11v-.37h4.06Z" transform="translate(-53.93 -51.11)"/><path class="cls-1" d="M618.58,148.79l-.12-9c0-2.33-.67-3-3.45-3.51v-.37h6.72v.37c-1.69.22-2,1.15-2.21,2.75-.35,2.71-.22,8.64-.1,14l-.32.08c-3.94-4.65-8.32-9-12.48-13.44v4.53c0,6.1-.15,7.36,3.42,8.07v.37h-7.36v-.37c3.33-.34,3.2-2.61,3.2-8.19V140.4c0-2.47-.39-3.43-3.51-4.11v-.37h4Z" transform="translate(-53.93 -51.11)"/><path class="cls-1" d="M286.14,173.8h-.37c-.47-2.78-2.09-4.78-5-4.78-4.51,0-7,3.7-7,7.93,0,4.85,3.71,8.22,7.28,8.22,3.23,0,4.51-2.37,5.61-5l.35.14a23.67,23.67,0,0,1-1.36,4.41,11.38,11.38,0,0,1-5,1.06c-5.14,0-9.72-3-9.72-8.52,0-4.38,3.42-8.81,9.92-8.81a10.54,10.54,0,0,1,5.39,1.33Z" transform="translate(-53.93 -51.11)"/><path class="cls-1" d="M312.47,177.1c0,5.29-3.84,8.66-9,8.66s-9-3.37-9-8.69,3.84-8.64,9-8.64C309.74,168.43,312.47,172.72,312.47,177.1Zm-15.16-.62c0,3.81,2,8.69,6.45,8.69,4.06,0,5.86-4.14,5.86-7.66-.08-4.35-2.61-8.49-6.38-8.49C299,169,297.31,173.16,297.31,176.48Z" transform="translate(-53.93 -51.11)"/><path class="cls-1" d="M320,185.09c2.95-.39,3-1.13,3-3.66v-8.67c-.08-2.53-.1-3.27-3-3.66v-.37h8.27v.37c-3,.39-3.06,1.13-3.06,3.66v8.08a12.49,12.49,0,0,0,.37,3.71l3,.22c3.74.27,4.35-.88,6.25-4l.32.15-1.41,4.57H320Z" transform="translate(-53.93 -51.11)"/><path class="cls-1" d="M341.14,185.09c2.95-.39,3-1.13,3.05-3.66v-8.67c-.07-2.53-.1-3.27-3.05-3.66v-.37h8.27v.37c-3,.39-3.05,1.13-3.05,3.66v8.08a12.49,12.49,0,0,0,.37,3.71l3,.22c3.74.27,4.36-.88,6.25-4l.32.15-1.4,4.57H341.14Z" transform="translate(-53.93 -51.11)"/><path class="cls-1" d="M362.3,185.09c3-.39,3-1.13,3.06-3.66v-8.67c-.08-2.53-.1-3.27-3.06-3.66v-.37h13.22l-.3,3.79h-.36c-.18-3.18-2.47-3.2-4.95-3.2h-2.39v7h2.56c1.85,0,3.25-.15,3.52-2.26H374v5.49h-.37c-.32-2.17-1.67-2.19-3.52-2.19h-2.56v4c0,1.45-.34,3.47,3.69,3.47,3.1,0,4.63-1.18,5.25-4.28h.36a15.4,15.4,0,0,1-.83,4.87H362.3Z" transform="translate(-53.93 -51.11)"/><path class="cls-1" d="M401.34,183.57v.37a18,18,0,0,1-7.44,1.82c-5.07,0-9.37-3.08-9.37-8.47s4.77-8.86,9.91-8.86a18.46,18.46,0,0,1,5.76,1l-.1,4.28h-.32a5.42,5.42,0,0,0-5.56-4.65c-4.25,0-6.84,3.25-6.84,7.36a8.19,8.19,0,0,0,8.37,8.54c2.24,0,2.21-.59,2.21-2.19v-1.48c0-2.73-.71-3-3.32-3.34v-.37h7.29v.37c-1.73.34-1.8,1-1.8,2.56v3.1Z" transform="translate(-53.93 -51.11)"/><path class="cls-1" d="M408.57,185.09c2.95-.39,3-1.13,3.05-3.66v-8.67c-.07-2.53-.1-3.27-3.05-3.66v-.37h13.22l-.3,3.79h-.37c-.17-3.18-2.46-3.2-4.95-3.2h-2.38v7h2.56c1.84,0,3.24-.15,3.52-2.26h.36v5.49h-.36c-.32-2.17-1.68-2.19-3.52-2.19h-2.56v4c0,1.45-.35,3.47,3.69,3.47,3.1,0,4.62-1.18,5.24-4.28h.37a15.68,15.68,0,0,1-.84,4.87H408.57Z" transform="translate(-53.93 -51.11)"/><path class="cls-1" d="M461.11,177.1c0,5.29-3.84,8.66-9,8.66s-9-3.37-9-8.69,3.84-8.64,9-8.64C458.38,168.43,461.11,172.72,461.11,177.1ZM446,176.48c0,3.81,2,8.69,6.45,8.69,4.06,0,5.86-4.14,5.86-7.66-.08-4.35-2.61-8.49-6.38-8.49C447.65,169,446,173.16,446,176.48Z" transform="translate(-53.93 -51.11)"/><path class="cls-1" d="M480,174.14v6h-.36c-.2-2.49-1.48-2.44-3.55-2.44h-2.68v3.72c0,2.63.12,3.15,3.54,3.66v.37h-8.76v-.37c2.95-.39,3-1.13,3-3.66v-8.67c-.07-2.53-.1-3.27-3-3.66v-.37h13l-.39,3.89h-.37c-.15-3.18-2.22-3.3-4.8-3.3h-2.24v7.36h2.68c2.07,0,3.35-.2,3.55-2.54Z" transform="translate(-53.93 -51.11)"/><path class="cls-1" d="M500.61,185.09c2.95-.39,3-1.13,3.05-3.66v-8.67c-.08-2.53-.1-3.27-3.05-3.66v-.37h13.21l-.29,3.79h-.37c-.17-3.18-2.46-3.2-4.95-3.2h-2.39v7h2.56c1.85,0,3.25-.15,3.52-2.26h.37v5.49h-.37c-.32-2.17-1.67-2.19-3.52-2.19h-2.56v4c0,1.45-.34,3.47,3.7,3.47,3.1,0,4.62-1.18,5.24-4.28h.37a15.68,15.68,0,0,1-.84,4.87H500.61Z" transform="translate(-53.93 -51.11)"/><path class="cls-1" d="M538.11,181.6l-.12-9c0-2.34-.67-3-3.45-3.52v-.37h6.72v.37c-1.7.22-2,1.15-2.21,2.75-.35,2.71-.23,8.64-.1,14l-.32.07c-3.94-4.65-8.32-9-12.48-13.44V177c0,6.11-.15,7.36,3.42,8.07v.37h-7.36v-.37c3.33-.34,3.2-2.6,3.2-8.19v-3.69c0-2.46-.39-3.42-3.52-4.11v-.37H526Z" transform="translate(-53.93 -51.11)"/><path class="cls-1" d="M565.23,183.57v.37a17.87,17.87,0,0,1-7.43,1.82c-5.07,0-9.38-3.08-9.38-8.47s4.78-8.86,9.92-8.86a18.55,18.55,0,0,1,5.76,1l-.1,4.28h-.32a5.43,5.43,0,0,0-5.56-4.65c-4.26,0-6.84,3.25-6.84,7.36a8.19,8.19,0,0,0,8.36,8.54c2.24,0,2.22-.59,2.22-2.19v-1.48c0-2.73-.72-3-3.32-3.34v-.37h7.28v.37c-1.72.34-1.79,1-1.79,2.56v3.1Z" transform="translate(-53.93 -51.11)"/><path class="cls-1" d="M577.71,181.43c.07,2.53.1,3.27,3,3.66v.37h-8.27v-.37c3-.39,3-1.13,3-3.66v-8.67c-.07-2.53-.1-3.27-3-3.66v-.37h8.27v.37c-3,.39-3,1.13-3,3.66Z" transform="translate(-53.93 -51.11)"/><path class="cls-1" d="M603.57,181.6l-.12-9c0-2.34-.67-3-3.45-3.52v-.37h6.72v.37c-1.7.22-2,1.15-2.21,2.75-.35,2.71-.22,8.64-.1,14l-.32.07c-3.94-4.65-8.32-9-12.48-13.44V177c0,6.11-.15,7.36,3.42,8.07v.37h-7.36v-.37c3.33-.34,3.2-2.6,3.2-8.19v-3.69c0-2.46-.39-3.42-3.52-4.11v-.37h4.06Z" transform="translate(-53.93 -51.11)"/><path class="cls-1" d="M613.32,185.09c2.95-.39,3-1.13,3-3.66v-8.67c-.08-2.53-.1-3.27-3-3.66v-.37h13.21l-.29,3.79h-.37c-.18-3.18-2.46-3.2-5-3.2h-2.39v7h2.56c1.85,0,3.25-.15,3.52-2.26H625v5.49h-.37c-.32-2.17-1.67-2.19-3.52-2.19h-2.56v4c0,1.45-.34,3.47,3.69,3.47,3.11,0,4.63-1.18,5.25-4.28h.36a15.4,15.4,0,0,1-.83,4.87H613.32Z" transform="translate(-53.93 -51.11)"/><path class="cls-1" d="M635,185.09c3-.39,3-1.13,3-3.66v-8.67c-.07-2.53-.09-3.27-3-3.66v-.37h13.22l-.3,3.79h-.37c-.17-3.18-2.46-3.2-4.94-3.2h-2.39v7h2.56c1.84,0,3.25-.15,3.52-2.26h.37v5.49h-.37c-.32-2.17-1.68-2.19-3.52-2.19h-2.56v4c0,1.45-.35,3.47,3.69,3.47,3.1,0,4.63-1.18,5.24-4.28h.37a15.4,15.4,0,0,1-.83,4.87H635Z" transform="translate(-53.93 -51.11)"/><path class="cls-1" d="M659.65,173.8c0-3.77-.12-4.33-2.87-4.58v-.34l6-.2c6.2-.2,6.69,2.83,6.69,4,0,2.07-1.28,3.25-3.05,4l.13.17c1.89,3.32,4.25,7.55,8.31,8.39l-.07.37c-2.61-.12-4.53,0-6-1.53a21.67,21.67,0,0,1-3.42-4.92c-1-2-1.87-1.45-3.59-1.75v4c0,2.7,0,3.2,3.42,3.66v.37H656.6v-.37c3-.39,3-1.13,3-3.66Zm2.17,3.25c2.36,0,5.12-1.11,5.12-3.84,0-2.88-2.54-4-5.12-4Z" transform="translate(-53.93 -51.11)"/><path class="cls-1" d="M684.51,181.43c.07,2.53.1,3.27,3,3.66v.37h-8.27v-.37c3-.39,3-1.13,3.05-3.66v-8.67c-.07-2.53-.09-3.27-3.05-3.66v-.37h8.27v.37c-2.95.39-3,1.13-3,3.66Z" transform="translate(-53.93 -51.11)"/><path class="cls-1" d="M710.37,181.6l-.12-9c0-2.34-.66-3-3.44-3.52v-.37h6.71v.37c-1.69.22-2,1.15-2.21,2.75-.35,2.71-.22,8.64-.1,14l-.32.07c-3.94-4.65-8.32-9-12.48-13.44V177c0,6.11-.14,7.36,3.42,8.07v.37h-7.35v-.37c3.32-.34,3.2-2.6,3.2-8.19v-3.69c0-2.46-.4-3.42-3.52-4.11v-.37h4.06Z" transform="translate(-53.93 -51.11)"/><path class="cls-1" d="M737.49,183.57v.37a17.87,17.87,0,0,1-7.43,1.82c-5.07,0-9.38-3.08-9.38-8.47s4.78-8.86,9.92-8.86a18.46,18.46,0,0,1,5.76,1l-.1,4.28h-.32a5.42,5.42,0,0,0-5.56-4.65c-4.26,0-6.84,3.25-6.84,7.36a8.19,8.19,0,0,0,8.37,8.54c2.24,0,2.21-.59,2.21-2.19v-1.48c0-2.73-.71-3-3.32-3.34v-.37h7.28v.37c-1.72.34-1.79,1-1.79,2.56v3.1Z" transform="translate(-53.93 -51.11)"/><path class="cls-2" d="M152.66,192.69" transform="translate(-53.93 -51.11)"/><path class="cls-2" d="M94.34,186.72" transform="translate(-53.93 -51.11)"/><path class="cls-2" d="M99.58,178.07" transform="translate(-53.93 -51.11)"/><path class="cls-2" d="M129.54,163.05" transform="translate(-53.93 -51.11)"/><path class="cls-1" d="M138.06,87.86l-10.22,17.71h20.29Zm0,3.07L145.5,104h-15Z" transform="translate(-53.93 -51.11)"/><path class="cls-1" d="M219.16,70.08H166.92v5.45L153.59,51.89l-.44-.78H121.52l-.44.78L107.7,75.61V70.08H53.93V96.3H64.14c0,12.09,0,29.85,0,42.11H54.42v25.91h10.4a29.29,29.29,0,0,0,12,18.7c12.58,9.27,27.67,15.44,60.45,15.44s47.88-6.17,60.45-15.44c6.51-4.8,9.7-12.3,11.26-18.7h11.23V138.41h-9.76V96.3H220.7V70.08Zm0,24.69H209v45.16h9.77v22.86H207.78c-1.4,6.39-4.4,14.2-10.92,19-12.33,9.09-27.18,15.14-59.55,15.14s-47.21-6.05-59.54-15.14a28,28,0,0,1-11.65-19H56V139.93h9.71c0-16.88,0-45.16,0-45.16H55.46V71.61h50.72v9.82l16.23-28.79h29.85l16.19,28.71V71.61h50.72Z" transform="translate(-53.93 -51.11)"/><path class="cls-1" d="M152.38,139.93h15.07l-6-10.88H114.84l-6,10.58h13.4v23.16h-22c.51.34,1.06.68,1.68,1,7.43,4.13,14.31,7,35.37,7s27.95-2.91,35.37-7c.62-.35,1.17-.69,1.69-1h-22Zm16.06,24.39c-6.24,3-13.76,5-31.13,5s-24.89-2-31.13-5h17.64V138.1H111.5l4.23-7.52h44.79l4.34,7.83h-14v25.91h17.59Z" transform="translate(-53.93 -51.11)"/><path class="cls-1" d="M184.53,89.54v20.31l16.95,30.09h2.86V90.16h10.21V76.23H173.07V89.54h11.46Z" transform="translate(-53.93 -51.11)"/><path class="cls-1" d="M174.93,167.86c-8.36,4.64-16.25,7.62-37.62,7.62s-29.25-3-37.61-7.62a21.2,21.2,0,0,1-6.36-5.07H70.82a23.46,23.46,0,0,0,9.69,15.28c11.76,8.67,25.54,14.25,56.8,14.25s45.05-5.58,56.81-14.25a23.54,23.54,0,0,0,9.69-15.28H181.29A21.33,21.33,0,0,1,174.93,167.86Z" transform="translate(-53.93 -51.11)"/><path class="cls-1" d="M90.1,109.94V89.54h11.46V76.23H60.08V90.16H70.29v49.78h2.9Z" transform="translate(-53.93 -51.11)"/><path class="cls-1" d="M126.35,57.25h23.22l49.21,87.3h15.33v13.62H157V144.55h18.3l-11.15-20.12h-52L101,144.24h16.69v13.93H60.56V144.55H75.89l49.22-87.3h23.22m-28.48,52.94h36.21l-18-31.62Z" transform="translate(-53.93 -51.11)"/><path class="cls-1" d="M176,94h4.72v0h.66v8l-1.25.3L176,94ZM180,99.19V95.33h-1.93L180,99.19Z" transform="translate(-53.93 -51.11)"/><path class="cls-1" d="M93.54,102V94h5.38l-4.13,8.3L93.54,102Zm1.32-2.82,1.93-3.87H94.86v3.87Z" transform="translate(-53.93 -51.11)"/><path class="cls-1" d="M210.2,177.55a3.29,3.29,0,1,1,3.31,3.37A3.28,3.28,0,0,1,210.2,177.55Zm3.31,4a4,4,0,1,0-4.12-4A4,4,0,0,0,213.51,181.59Zm-.86-3.72h.82l1.23,2h.79l-1.33-2a1.22,1.22,0,0,0,1.22-1.29c0-.93-.55-1.33-1.65-1.33h-1.79v4.67h.71Zm0-.6v-1.45h1c.49,0,1,.1,1,.69s-.54.76-1.14.76Z" transform="translate(-53.93 -51.11)"/><path class="cls-1" d="M152,194.17" transform="translate(-53.93 -51.11)"/><path class="cls-1" d="M92,188" transform="translate(-53.93 -51.11)"/><path class="cls-1" d="M97.34,179.11" transform="translate(-53.93 -51.11)"/><path class="cls-1" d="M128.2,163.63" transform="translate(-53.93 -51.11)"/><path class="cls-1" d="M153.9,194.94" transform="translate(-53.93 -51.11)"/></svg>